<svg width="34" height="43" viewBox="0 0 34 43" fill="none" xmlns="http://www.w3.org/2000/svg">
<path d="M10.0425 0.289307C9.24078 0.289307 8.47187 0.594529 7.90495 1.13783C7.33802 1.68113 7.01953 2.418 7.01953 3.18634V6.08338C7.01953 6.61671 7.47068 7.04906 8.0272 7.04906C8.58372 7.04906 9.03486 6.61671 9.03486 6.08338V3.18634C9.03486 2.93023 9.14103 2.68461 9.33 2.50351C9.51897 2.32241 9.77528 2.22067 10.0425 2.22067H13.0655C13.622 2.22067 14.0732 1.78832 14.0732 1.25499C14.0732 0.721656 13.622 0.289307 13.0655 0.289307H10.0425Z" fill="#828282"/>
<path d="M21.1268 0.289307C20.5703 0.289307 20.1192 0.721656 20.1192 1.25499C20.1192 1.78832 20.5703 2.22067 21.1268 2.22067H24.1498C24.4171 2.22067 24.6734 2.32241 24.8624 2.50351C25.0513 2.68461 25.1575 2.93023 25.1575 3.18634V6.08338C25.1575 6.61671 25.6087 7.04906 26.1652 7.04906C26.7217 7.04906 27.1728 6.61671 27.1728 6.08338V3.18634C27.1728 2.418 26.8543 1.68113 26.2874 1.13783C25.7205 0.59453 24.9516 0.289307 24.1498 0.289307H21.1268Z" fill="#828282"/>
<path d="M9.03486 13.8088C9.03486 13.2755 8.58372 12.8431 8.0272 12.8431C7.47068 12.8431 7.01953 13.2755 7.01953 13.8088V16.7059C7.01953 17.4742 7.33802 18.2111 7.90495 18.7544C8.47187 19.2977 9.24078 19.6029 10.0425 19.6029H13.0655C13.622 19.6029 14.0732 19.1705 14.0732 18.6372C14.0732 18.1039 13.622 17.6715 13.0655 17.6715H10.0425C9.77528 17.6715 9.51897 17.5698 9.33 17.3887C9.14103 17.2076 9.03486 16.962 9.03486 16.7059V13.8088Z" fill="#828282"/>
<path d="M27.1728 13.8088C27.1728 13.2755 26.7217 12.8431 26.1652 12.8431C25.6087 12.8431 25.1575 13.2755 25.1575 13.8088V16.7059C25.1575 16.962 25.0513 17.2076 24.8624 17.3887C24.6734 17.5698 24.4171 17.6715 24.1498 17.6715H21.1268C20.5703 17.6715 20.1192 18.1039 20.1192 18.6372C20.1192 19.1705 20.5703 19.6029 21.1268 19.6029H24.1498C24.9516 19.6029 25.7205 19.2977 26.2874 18.7544C26.8543 18.2111 27.1728 17.4742 27.1728 16.7059V13.8088Z" fill="#828282"/>
<path d="M9.47384 31.1084V31.839C9.47384 32.696 9.47384 33.6251 9.20323 34.933H10.3488V35.7539H8.52669V38.7938H7.5164V35.7539H5.69427V38.7938H4.68398V35.7539H2.91598V34.933H8.22C8.32373 34.4595 8.39139 34.0355 8.43649 33.6431L3.68271 33.8867L3.55643 33.0207L8.49963 32.8674C8.51316 32.5291 8.51316 32.2134 8.51767 31.9112H3.809V31.1084H9.47384ZM16.9108 30.6483V32.2901H18.0474V33.1199H16.9108V34.7436H15.9095V30.6483H16.9108ZM16.9108 35.0954V37.2333H12.581V37.9098H17.1634V38.7036H11.5887V36.5026H15.9095V35.8712H11.5797V35.0954H16.9108ZM12.7343 30.919C13.9791 30.919 14.8902 31.6676 14.8992 32.7501C14.8902 33.8145 13.9791 34.5722 12.7343 34.5722C11.4895 34.5722 10.5604 33.8145 10.5694 32.7501C10.5604 31.6676 11.4895 30.919 12.7343 30.919ZM12.7343 31.7308C12.0488 31.7308 11.5436 32.1277 11.5526 32.7501C11.5436 33.3635 12.0488 33.7784 12.7343 33.7784C13.4199 33.7784 13.925 33.3635 13.925 32.7501C13.925 32.1277 13.4199 31.7308 12.7343 31.7308ZM25.1235 30.6483V38.8028H24.1673V30.6483H25.1235ZM23.4998 30.8197V38.3969H22.5436V34.5542H21.6416V33.6612H22.5436V30.8197H23.4998ZM21.8491 31.6135V32.4254H21.2718V35.9433C21.5288 35.9208 21.7724 35.8937 22.0024 35.8622L22.0656 36.5928C20.7847 36.8544 19.1069 36.8815 18.0695 36.8815L17.9522 36.0516L18.6919 36.0426V32.4254H18.1146V31.6135H21.8491ZM19.594 36.0245L20.3517 35.9975V32.4254H19.594V36.0245ZM32.389 30.6483V38.8118H31.3788V30.6483H32.389ZM27.9961 31.2437C29.2229 31.2437 30.1159 32.3622 30.1249 34.1212C30.1159 35.8982 29.2229 37.0078 27.9961 37.0078C26.7603 37.0078 25.8673 35.8982 25.8673 34.1212C25.8673 32.3622 26.7603 31.2437 27.9961 31.2437ZM27.9961 32.1457C27.3015 32.1457 26.8325 32.8764 26.8325 34.1212C26.8325 35.3751 27.3015 36.1057 27.9961 36.1057C28.6816 36.1057 29.1507 35.3751 29.1507 34.1212C29.1507 32.8764 28.6816 32.1457 27.9961 32.1457Z" fill="#828282"/>
</svg>
