<svg width="40" height="43" viewBox="0 0 40 43" fill="none" xmlns="http://www.w3.org/2000/svg">
<path fill-rule="evenodd" clip-rule="evenodd" d="M20.0953 0.289307C17.2612 0.289307 14.9637 2.45105 14.9637 5.1177C14.9637 7.78435 17.2612 9.9461 20.0953 9.9461C22.9295 9.9461 25.227 7.78435 25.227 5.1177C25.227 2.45105 22.9295 0.289307 20.0953 0.289307ZM17.0164 5.1177C17.0164 3.51771 18.3949 2.22067 20.0953 2.22067C21.7958 2.22067 23.1743 3.51771 23.1743 5.1177C23.1743 6.71769 21.7958 8.01474 20.0953 8.01474C18.3949 8.01474 17.0164 6.71769 17.0164 5.1177Z" fill="#828282"/>
<path d="M15.99 11.8775C14.629 11.8775 13.3238 12.3862 12.3614 13.2917C11.3991 14.1972 10.8584 15.4253 10.8584 16.7059V18.6372C10.8584 19.1705 11.3179 19.6029 11.8847 19.6029C12.4515 19.6029 12.9111 19.1705 12.9111 18.6372V16.7059C12.9111 15.9375 13.2354 15.2006 13.8129 14.6573C14.3903 14.114 15.1734 13.8088 15.99 13.8088H24.2006C25.0172 13.8088 25.8004 14.114 26.3778 14.6573C26.9552 15.2006 27.2796 15.9375 27.2796 16.7059V18.6372C27.2796 19.1705 27.7391 19.6029 28.3059 19.6029C28.8728 19.6029 29.3323 19.1705 29.3323 18.6372V16.7059C29.3323 15.4253 28.7916 14.1972 27.8292 13.2917C26.8669 12.3862 25.5616 11.8775 24.2006 11.8775H15.99Z" fill="#828282"/>
<path d="M5.39771 31.4421V36.7822H1.53696V31.4421H5.39771ZM2.52019 32.2269V35.9794H4.39644V32.2269H2.52019ZM7.63478 30.6483V33.7784H8.88862V34.6264H7.63478V38.8028H6.63351V30.6483H7.63478ZM15.5949 30.6483V38.8118H14.5846V30.6483H15.5949ZM11.202 31.2437C12.4287 31.2437 13.3218 32.3622 13.3308 34.1212C13.3218 35.8982 12.4287 37.0078 11.202 37.0078C9.96616 37.0078 9.07313 35.8982 9.07313 34.1212C9.07313 32.3622 9.96616 31.2437 11.202 31.2437ZM11.202 32.1457C10.5074 32.1457 10.0383 32.8764 10.0383 34.1212C10.0383 35.3751 10.5074 36.1057 11.202 36.1057C11.8875 36.1057 12.3566 35.3751 12.3566 34.1212C12.3566 32.8764 11.8875 32.1457 11.202 32.1457ZM23.4558 30.6483V38.8028H22.4997V30.6483H23.4558ZM21.8321 30.8197V38.3969H20.876V34.5542H19.9739V33.6612H20.876V30.8197H21.8321ZM20.1814 31.6135V32.4254H19.6041V35.9433C19.8612 35.9208 20.1047 35.8937 20.3347 35.8622L20.3979 36.5928C19.117 36.8544 17.4392 36.8815 16.4018 36.8815L16.2846 36.0516L17.0242 36.0426V32.4254H16.4469V31.6135H20.1814ZM17.9263 36.0245L18.684 35.9975V32.4254H17.9263V36.0245ZM30.7214 30.6483V38.8118H29.7111V30.6483H30.7214ZM26.3284 31.2437C27.5552 31.2437 28.4482 32.3622 28.4572 34.1212C28.4482 35.8982 27.5552 37.0078 26.3284 37.0078C25.0926 37.0078 24.1996 35.8982 24.1996 34.1212C24.1996 32.3622 25.0926 31.2437 26.3284 31.2437ZM26.3284 32.1457C25.6338 32.1457 25.1648 32.8764 25.1648 34.1212C25.1648 35.3751 25.6338 36.1057 26.3284 36.1057C27.014 36.1057 27.483 35.3751 27.483 34.1212C27.483 32.8764 27.014 32.1457 26.3284 32.1457ZM34.5772 32.9666C34.5772 34.3016 35.362 35.7088 36.679 36.2591L36.1287 37.0529C35.1635 36.6379 34.4599 35.781 34.0901 34.7436C33.7112 35.8622 32.9986 36.8003 32.0425 37.2513L31.4652 36.4665C32.7551 35.8712 33.5579 34.3557 33.5579 32.9666V32.281H31.7628V31.4512H36.3633V32.281H34.5772V32.9666ZM38.2846 30.6483V38.8028H37.2743V30.6483H38.2846Z" fill="#828282"/>
</svg>
