<svg width="32" height="47" viewBox="0 0 32 47" fill="none" xmlns="http://www.w3.org/2000/svg">
<path fill-rule="evenodd" clip-rule="evenodd" d="M13.3457 1.56104C12.3332 1.56104 11.5124 2.41916 11.5124 3.4777H10.5957C9.86636 3.4777 9.16688 3.7806 8.65116 4.31977C8.13543 4.85894 7.8457 5.5902 7.8457 6.3527V19.7694C7.8457 20.5319 8.13543 21.2631 8.65116 21.8023C9.16688 22.3415 9.86636 22.6444 10.5957 22.6444H21.5957C22.325 22.6444 23.0245 22.3415 23.5402 21.8023C24.056 21.2631 24.3457 20.5319 24.3457 19.7694V6.3527C24.3457 5.5902 24.056 4.85894 23.5402 4.31977C23.0245 3.7806 22.325 3.4777 21.5957 3.4777H20.679C20.679 2.41916 19.8582 1.56104 18.8457 1.56104H13.3457ZM20.679 5.39437C20.679 6.45291 19.8582 7.31103 18.8457 7.31103H13.3457C12.3332 7.31103 11.5124 6.45291 11.5124 5.39437H10.5957C10.3526 5.39437 10.1194 5.49533 9.94752 5.67506C9.77561 5.85478 9.67904 6.09854 9.67904 6.3527V19.7694C9.67904 20.0235 9.77561 20.2673 9.94752 20.447C10.1194 20.6267 10.3526 20.7277 10.5957 20.7277H21.5957C21.8388 20.7277 22.072 20.6267 22.2439 20.447C22.4158 20.2673 22.5124 20.0235 22.5124 19.7694V6.3527C22.5124 6.09854 22.4158 5.85478 22.2439 5.67506C22.072 5.49533 21.8388 5.39437 21.5957 5.39437H20.679ZM13.3457 5.39437H18.8457V3.4777H13.3457V5.39437Z" fill="#828282"/>
<path d="M8.46277 39.1946V40.0065H5.22443V42.7938H4.23218V40.0065H1.02992V39.1946H8.46277ZM7.77721 35.1084V35.9022H5.33267C5.39131 36.7952 6.46474 37.6521 8.07489 37.8596L7.71407 38.6444C6.32492 38.4505 5.24247 37.8145 4.74635 36.9305C4.25022 37.8145 3.16777 38.4505 1.79666 38.6444L1.4178 37.8596C3.01893 37.6521 4.09236 36.7952 4.16904 35.9022H1.71548V35.1084H7.77721ZM16.035 38.7256V39.5284H12.8869V41.0258H11.8946V39.5284H8.58413V38.7256H16.035ZM15.0789 35.0182V37.9679H9.53128V35.0182H15.0789ZM10.5055 35.803V37.1831H14.0866V35.803H10.5055ZM15.2142 41.8286V42.6405H9.48618V40.2771H10.4874V41.8286H15.2142ZM22.9849 34.6574V40.8634H21.9836V39.2578H20.7749V38.455H21.9836V37.5439H20.7749V36.7321H21.9836V34.6574H22.9849ZM20.7298 35.5594V36.3622H16.1744V35.5594H17.9966V34.6483H18.9978V35.5594H20.7298ZM18.4837 36.696C19.5932 36.696 20.387 37.3455 20.396 38.2836C20.387 39.2217 19.5932 39.8712 18.4837 39.8712C17.3832 39.8712 16.5894 39.2217 16.5984 38.2836C16.5894 37.3455 17.3832 36.696 18.4837 36.696ZM18.4837 37.4808C17.9244 37.4898 17.5275 37.7875 17.5365 38.2836C17.5275 38.7977 17.9244 39.0954 18.4837 39.0954C19.0429 39.0954 19.4488 38.7977 19.4488 38.2836C19.4488 37.7875 19.0429 37.4898 18.4837 37.4808ZM23.1653 41.8286V42.6405H17.6087V40.3312H18.628V41.8286H23.1653ZM30.1783 34.6574V37.0207H31.2787V37.8416H30.1783V40.1689H29.177V34.6574H30.1783ZM27.4811 40.241C29.2131 40.241 30.2143 40.7011 30.2234 41.5309C30.2143 42.3608 29.2131 42.8028 27.4811 42.8028C25.7222 42.8028 24.7299 42.3608 24.7299 41.5309C24.7299 40.7011 25.7222 40.241 27.4811 40.241ZM27.4811 40.9807C26.3085 40.9717 25.7312 41.1611 25.7312 41.5309C25.7312 41.8737 26.3085 42.0631 27.4811 42.0631C28.6358 42.0631 29.204 41.8737 29.2131 41.5309C29.204 41.1611 28.6358 40.9717 27.4811 40.9807ZM23.6475 39.1225C24.2654 39.1225 24.9689 39.1225 25.7041 39.0954V38.5632C24.7885 38.4595 24.2248 38.0445 24.2248 37.4266C24.2248 36.705 24.9915 36.263 26.1912 36.263C27.3909 36.263 28.1577 36.705 28.1577 37.4266C28.1577 38.04 27.6074 38.4505 26.7054 38.5542V39.0593C27.4 39.0278 28.099 38.9691 28.753 38.8789L28.8342 39.5735C27.0933 39.8712 25.199 39.8982 23.7557 39.8982L23.6475 39.1225ZM28.5365 35.2798V36.0194H23.8549V35.2798H25.7041V34.5852H26.7054V35.2798H28.5365ZM26.1912 36.9305C25.5598 36.9305 25.1809 37.1199 25.19 37.4266C25.1809 37.7514 25.5598 37.9318 26.1912 37.9318C26.8227 37.9318 27.2015 37.7514 27.2015 37.4266C27.2015 37.1199 26.8227 36.9305 26.1912 36.9305Z" fill="#828282"/>
</svg>
