<svg width="26" height="43" viewBox="0 0 26 43" fill="none" xmlns="http://www.w3.org/2000/svg">
<path fill-rule="evenodd" clip-rule="evenodd" d="M13.3388 0.372644C13.0082 0.117647 12.5451 0.117647 12.2145 0.372644L3.97361 6.72797C3.75057 6.89998 3.62012 7.16446 3.62012 7.44463V17.4316C3.62012 18.1539 3.90953 18.8467 4.42468 19.3575C4.93984 19.8683 5.63854 20.1553 6.36708 20.1553H19.1862C19.9148 20.1553 20.6135 19.8683 21.1286 19.3575C21.6438 18.8467 21.9332 18.1539 21.9332 17.4316V7.44463C21.9332 7.16446 21.8027 6.89998 21.5797 6.72797L13.3388 0.372644ZM16.4393 18.3395H19.1862C19.4291 18.3395 19.662 18.2438 19.8337 18.0736C20.0054 17.9033 20.1019 17.6724 20.1019 17.4316V7.88867L12.7767 2.23949L5.45142 7.88867V17.4316C5.45142 17.6724 5.54789 17.9033 5.71961 18.0736C5.89133 18.2438 6.12423 18.3395 6.36708 18.3395H9.11404V10.1683C9.11404 9.66692 9.52399 9.26043 10.0297 9.26043H15.5236C16.0293 9.26043 16.4393 9.66692 16.4393 10.1683V18.3395ZM10.9453 18.3395V11.0762H14.608V18.3395H10.9453Z" fill="#FF840E"/>
<path d="M8.9524 31.5323V33.6521H9.89954V30.7927H10.8557V38.4059H9.89954V34.464H8.9524V36.7011H5.75014V31.5323H8.9524ZM6.68827 32.3261V35.9073H8.01427V32.3261H6.68827ZM12.5335 30.6483V38.8028H11.5683V30.6483H12.5335ZM19.8532 30.6574V36.5477H18.8429V30.6574H19.8532ZM20.0787 37.8286V38.6405H14.459V35.9524H15.4693V37.8286H20.0787ZM15.4061 31.1896C16.6419 31.1896 17.5981 32.0465 17.5981 33.2282C17.5981 34.4369 16.6419 35.2758 15.4061 35.2758C14.1613 35.2758 13.2051 34.4369 13.2051 33.2282C13.2051 32.0465 14.1613 31.1896 15.4061 31.1896ZM15.4061 32.0645C14.7115 32.0645 14.1793 32.5246 14.1884 33.2282C14.1793 33.9498 14.7115 34.4008 15.4061 34.4008C16.0826 34.4008 16.6149 33.9498 16.6149 33.2282C16.6149 32.5246 16.0826 32.0645 15.4061 32.0645Z" fill="#FF840E"/>
</svg>
