<svg width="27" height="26" viewBox="0 0 27 26" fill="none" xmlns="http://www.w3.org/2000/svg">
<path d="M13.5691 1.35483C7.15366 1.35483 1.95282 6.55588 1.95282 12.9715C1.95282 19.3872 7.15366 24.5882 13.5691 24.5882C19.9844 24.5882 25.1853 19.3872 25.1853 12.9715C25.1853 6.55588 19.9855 1.35483 13.5691 1.35483ZM13.529 19.19C10.072 19.19 7.26964 16.3876 7.26964 12.9304C7.26964 9.47324 10.072 6.6708 13.529 6.6708C16.986 6.6708 19.7883 9.47324 19.7883 12.9304C19.7883 16.3876 16.986 19.19 13.529 19.19Z" fill="url(#paint0_linear_452_8836)"/>
<path d="M15.9149 0H11.1431C10.5853 0 10.1331 0.452218 10.1331 1.01006V1.35904C10.1331 1.91688 10.5853 2.3691 11.1431 2.3691H15.9149C16.4727 2.3691 16.9249 1.91688 16.9249 1.35904V1.01006C16.9249 0.452218 16.4727 0 15.9149 0Z" fill="url(#paint1_linear_452_8836)"/>
<path d="M15.9149 0H11.1431C10.5853 0 10.1331 0.452218 10.1331 1.01006V1.35904C10.1331 1.91688 10.5853 2.3691 11.1431 2.3691H15.9149C16.4727 2.3691 16.9249 1.91688 16.9249 1.35904V1.01006C16.9249 0.452218 16.4727 0 15.9149 0Z" fill="url(#paint2_linear_452_8836)"/>
<path d="M6.01441 2.10041L2.64028 5.47468C2.24584 5.86913 2.24584 6.50867 2.64028 6.90312L2.88704 7.14989C3.28147 7.54434 3.92098 7.54434 4.31542 7.14989L7.68955 3.77562C8.08398 3.38117 8.08398 2.74163 7.68955 2.34718L7.44279 2.10041C7.04835 1.70596 6.40885 1.70596 6.01441 2.10041Z" fill="url(#paint3_linear_452_8836)"/>
<path d="M0.5 10.5856V15.3575C0.5 15.9153 0.952199 16.3676 1.51002 16.3676H1.85899C2.4168 16.3676 2.869 15.9153 2.869 15.3575V10.5856C2.869 10.0277 2.4168 9.57551 1.85899 9.57551H1.51002C0.952199 9.57551 0.5 10.0277 0.5 10.5856Z" fill="url(#paint4_linear_452_8836)"/>
<path d="M2.60012 20.4853L5.97425 23.8596C6.36869 24.254 7.0082 24.254 7.40263 23.8596L7.64939 23.6128C8.04383 23.2183 8.04383 22.5788 7.64939 22.1844L4.27526 18.8101C3.88082 18.4156 3.24132 18.4156 2.84688 18.8101L2.60012 19.0569C2.20569 19.4513 2.20568 20.0908 2.60012 20.4853Z" fill="url(#paint5_linear_452_8836)"/>
<path d="M11.0851 26H15.8569C16.4147 26 16.8669 25.5478 16.8669 24.9899V24.641C16.8669 24.0831 16.4147 23.6309 15.8569 23.6309H11.0851C10.5273 23.6309 10.0751 24.0831 10.0751 24.641V24.9899C10.0751 25.5478 10.5273 26 11.0851 26Z" fill="url(#paint6_linear_452_8836)"/>
<path d="M20.9839 23.9002L24.3581 20.5259C24.7525 20.1315 24.7525 19.4919 24.3581 19.0975L24.1113 18.8507C23.7169 18.4562 23.0774 18.4562 22.6829 18.8507L19.3088 22.225C18.9143 22.6194 18.9143 23.259 19.3088 23.6534L19.5555 23.9002C19.95 24.2946 20.5895 24.2946 20.9839 23.9002Z" fill="url(#paint7_linear_452_8836)"/>
<path d="M26.5 15.4144V10.6425C26.5 10.0847 26.0478 9.63244 25.49 9.63244H25.141C24.5832 9.63244 24.131 10.0847 24.131 10.6425V15.4144C24.131 15.9723 24.5832 16.4245 25.141 16.4245H25.49C26.0478 16.4245 26.5 15.9723 26.5 15.4144Z" fill="url(#paint8_linear_452_8836)"/>
<path d="M24.399 5.51518L21.0249 2.14091C20.6304 1.74645 19.9909 1.74645 19.5965 2.14091L19.3497 2.38768C18.9553 2.78213 18.9553 3.42166 19.3497 3.81611L22.7239 7.19038C23.1183 7.58483 23.7578 7.58483 24.1522 7.19038L24.399 6.94361C24.7934 6.54916 24.7934 5.90963 24.399 5.51518Z" fill="url(#paint9_linear_452_8836)"/>
<path d="M13.5 5.2C9.38381 5.2 6.04667 8.61475 6.04667 12.8267C6.04667 17.0386 9.38381 20.4533 13.5 20.4533C17.6162 20.4533 20.9533 17.0386 20.9533 12.8267C20.9533 8.61475 17.6172 5.2 13.5 5.2ZM13.4741 16.9101C11.2562 16.9101 9.45746 15.0706 9.45746 12.8001C9.45746 10.5296 11.2552 8.69011 13.4741 8.69011C15.6929 8.69011 17.4907 10.5296 17.4907 12.8001C17.4907 15.0706 15.6929 16.9101 13.4741 16.9101Z" fill="url(#paint10_linear_452_8836)"/>
<defs>
<linearGradient id="paint0_linear_452_8836" x1="22.9565" y1="23.0373" x2="4.76908" y2="2.58386" gradientUnits="userSpaceOnUse">
<stop stop-color="#89C6FF"/>
<stop offset="1" stop-color="#DFEFFE"/>
</linearGradient>
<linearGradient id="paint1_linear_452_8836" x1="22.9565" y1="23.0373" x2="4.76908" y2="2.58386" gradientUnits="userSpaceOnUse">
<stop stop-color="#89C6FF"/>
<stop offset="1" stop-color="#DFEFFE"/>
</linearGradient>
<linearGradient id="paint2_linear_452_8836" x1="22.9565" y1="23.0373" x2="4.76908" y2="2.58386" gradientUnits="userSpaceOnUse">
<stop stop-color="#89C6FF"/>
<stop offset="1" stop-color="#DFEFFE"/>
</linearGradient>
<linearGradient id="paint3_linear_452_8836" x1="22.9565" y1="23.0373" x2="4.76908" y2="2.58386" gradientUnits="userSpaceOnUse">
<stop stop-color="#89C6FF"/>
<stop offset="1" stop-color="#DFEFFE"/>
</linearGradient>
<linearGradient id="paint4_linear_452_8836" x1="22.9565" y1="23.0373" x2="4.76908" y2="2.58386" gradientUnits="userSpaceOnUse">
<stop stop-color="#89C6FF"/>
<stop offset="1" stop-color="#DFEFFE"/>
</linearGradient>
<linearGradient id="paint5_linear_452_8836" x1="22.9565" y1="23.0373" x2="4.76908" y2="2.58386" gradientUnits="userSpaceOnUse">
<stop stop-color="#89C6FF"/>
<stop offset="1" stop-color="#DFEFFE"/>
</linearGradient>
<linearGradient id="paint6_linear_452_8836" x1="22.9565" y1="23.0373" x2="4.76908" y2="2.58386" gradientUnits="userSpaceOnUse">
<stop stop-color="#89C6FF"/>
<stop offset="1" stop-color="#DFEFFE"/>
</linearGradient>
<linearGradient id="paint7_linear_452_8836" x1="22.9565" y1="23.0373" x2="4.76908" y2="2.58386" gradientUnits="userSpaceOnUse">
<stop stop-color="#89C6FF"/>
<stop offset="1" stop-color="#DFEFFE"/>
</linearGradient>
<linearGradient id="paint8_linear_452_8836" x1="22.9565" y1="23.0373" x2="4.76908" y2="2.58386" gradientUnits="userSpaceOnUse">
<stop stop-color="#89C6FF"/>
<stop offset="1" stop-color="#DFEFFE"/>
</linearGradient>
<linearGradient id="paint9_linear_452_8836" x1="22.9565" y1="23.0373" x2="4.76908" y2="2.58386" gradientUnits="userSpaceOnUse">
<stop stop-color="#89C6FF"/>
<stop offset="1" stop-color="#DFEFFE"/>
</linearGradient>
<linearGradient id="paint10_linear_452_8836" x1="9.04352" y1="6.50771" x2="18.2416" y2="19.3118" gradientUnits="userSpaceOnUse">
<stop stop-color="#87C4FE"/>
<stop offset="1" stop-color="#0061BD"/>
</linearGradient>
</defs>
</svg>
