<svg width="22" height="21" viewBox="0 0 22 21" fill="none" xmlns="http://www.w3.org/2000/svg">
<path d="M3.94682 0.843262C3.14508 0.843262 2.37617 1.14848 1.80924 1.69178C1.24232 2.23508 0.923828 2.97196 0.923828 3.7403V6.63734C0.923828 7.17067 1.37498 7.60302 1.93149 7.60302C2.48801 7.60302 2.93916 7.17067 2.93916 6.63734V3.7403C2.93916 3.48419 3.04532 3.23856 3.2343 3.05746C3.42327 2.87636 3.67957 2.77462 3.94682 2.77462H6.96982C7.52634 2.77462 7.97749 2.34227 7.97749 1.80894C7.97749 1.27561 7.52634 0.843262 6.96982 0.843262H3.94682Z" fill="white"/>
<path d="M15.0311 0.843262C14.4746 0.843262 14.0235 1.27561 14.0235 1.80894C14.0235 2.34227 14.4746 2.77462 15.0311 2.77462H18.0541C18.3214 2.77462 18.5777 2.87636 18.7667 3.05746C18.9556 3.23856 19.0618 3.48419 19.0618 3.7403V6.63734C19.0618 7.17067 19.513 7.60302 20.0695 7.60302C20.626 7.60302 21.0771 7.17067 21.0771 6.63734V3.7403C21.0771 2.97196 20.7586 2.23508 20.1917 1.69178C19.6248 1.14848 18.8559 0.843262 18.0541 0.843262H15.0311Z" fill="white"/>
<path d="M2.93916 14.3628C2.93916 13.8294 2.48801 13.3971 1.93149 13.3971C1.37498 13.3971 0.923828 13.8294 0.923828 14.3628V17.2598C0.923828 18.0282 1.24232 18.765 1.80924 19.3083C2.37616 19.8516 3.14508 20.1569 3.94682 20.1569H6.96982C7.52634 20.1569 7.97749 19.7245 7.97749 19.1912C7.97749 18.6578 7.52634 18.2255 6.96982 18.2255H3.94682C3.67958 18.2255 3.42327 18.1238 3.2343 17.9426C3.04532 17.7615 2.93916 17.5159 2.93916 17.2598V14.3628Z" fill="white"/>
<path d="M21.0771 14.3628C21.0771 13.8294 20.626 13.3971 20.0695 13.3971C19.513 13.3971 19.0618 13.8294 19.0618 14.3628V17.2598C19.0618 17.5159 18.9556 17.7615 18.7667 17.9426C18.5777 18.1238 18.3214 18.2255 18.0541 18.2255H15.0311C14.4746 18.2255 14.0235 18.6578 14.0235 19.1912C14.0235 19.7245 14.4746 20.1569 15.0311 20.1569H18.0541C18.8559 20.1569 19.6248 19.8516 20.1917 19.3083C20.7586 18.765 21.0771 18.0282 21.0771 17.2598V14.3628Z" fill="white"/>
</svg>
