<svg width="40" height="40" viewBox="0 0 40 40" fill="none" xmlns="http://www.w3.org/2000/svg">
<g filter="url(#filter0_d_452_8893)">
<rect x="5" y="5" width="30" height="30" rx="15" fill="#FF9127"/>
<path d="M19.0371 13.3949C19.0371 12.8629 19.4684 12.4316 20.0004 12.4316C20.5325 12.4316 20.9638 12.8629 20.9638 13.3949V26.606C20.9638 27.138 20.5325 27.5693 20.0004 27.5693C19.4684 27.5693 19.0371 27.138 19.0371 26.606V13.3949Z" fill="white"/>
<path d="M26.606 18.7619C27.138 18.7619 27.5693 19.1932 27.5693 19.7252C27.5693 20.2572 27.138 20.6885 26.606 20.6885L13.3949 20.6885C12.8629 20.6885 12.4316 20.2572 12.4316 19.7252C12.4316 19.1932 12.8629 18.7619 13.3949 18.7619L26.606 18.7619Z" fill="white"/>
</g>
<defs>
<filter id="filter0_d_452_8893" x="3.89908" y="4.44954" width="32.2018" height="32.2018" filterUnits="userSpaceOnUse" color-interpolation-filters="sRGB">
<feFlood flood-opacity="0" result="BackgroundImageFix"/>
<feColorMatrix in="SourceAlpha" type="matrix" values="0 0 0 0 0 0 0 0 0 0 0 0 0 0 0 0 0 0 127 0" result="hardAlpha"/>
<feOffset dy="0.550459"/>
<feGaussianBlur stdDeviation="0.550459"/>
<feComposite in2="hardAlpha" operator="out"/>
<feColorMatrix type="matrix" values="0 0 0 0 0 0 0 0 0 0 0 0 0 0 0 0 0 0 0.25 0"/>
<feBlend mode="normal" in2="BackgroundImageFix" result="effect1_dropShadow_452_8893"/>
<feBlend mode="normal" in="SourceGraphic" in2="effect1_dropShadow_452_8893" result="shape"/>
</filter>
</defs>
</svg>
