<svg width="92" height="45" viewBox="0 0 92 45" fill="none" xmlns="http://www.w3.org/2000/svg">
<path d="M32.45 20.65H2.95V13.05H32.45V8.65H2.95V1H41.15V24.45H32.45V20.65ZM43.65 34.2H34.6V44.2H26.15V34.2H17.95V44.2H9.5V34.2H0.45V26.55H43.65V34.2ZM89.8457 29.65H81.3957V0.499997H89.8457V29.65ZM62.4457 25.05C59.7124 25.05 57.279 24.5333 55.1457 23.5C53.0457 22.4667 51.4124 21.0167 50.2457 19.15C49.079 17.2833 48.4957 15.1667 48.4957 12.8C48.4957 10.4333 49.079 8.33333 50.2457 6.5C51.4124 4.63333 53.0457 3.18333 55.1457 2.15C57.279 1.08333 59.7124 0.549999 62.4457 0.549999C65.179 0.549999 67.5957 1.08333 69.6957 2.15C71.829 3.18333 73.479 4.63333 74.6457 6.5C75.8124 8.33333 76.3957 10.4333 76.3957 12.8C76.3957 15.1667 75.8124 17.2833 74.6457 19.15C73.479 21.0167 71.829 22.4667 69.6957 23.5C67.5957 24.5333 65.179 25.05 62.4457 25.05ZM62.4457 7.5C60.8124 7.5 59.479 7.98333 58.4457 8.95C57.4124 9.88333 56.8957 11.1667 56.8957 12.8C56.8957 14.4333 57.4124 15.7333 58.4457 16.7C59.479 17.6333 60.8124 18.1 62.4457 18.1C64.079 18.1 65.4124 17.6333 66.4457 16.7C67.479 15.7333 67.9957 14.4333 67.9957 12.8C67.9957 11.1667 67.479 9.88333 66.4457 8.95C65.4124 7.98333 64.079 7.5 62.4457 7.5ZM88.7957 43.75L70.5457 36.95C68.179 38.9833 65.3457 40.5333 62.0457 41.6C58.7457 42.6667 55.3124 43.2 51.7457 43.2V35.3C55.8124 35.3 59.379 34.4667 62.4457 32.8C65.5124 31.1333 67.429 28.8333 68.1957 25.9L76.6457 27.4C76.2457 28.8333 75.8124 30.0167 75.3457 30.95L91.7457 36.25L88.7957 43.75Z" fill="#FF840E"/>
</svg>
