<svg width="96" height="111" viewBox="0 0 96 111" fill="none" xmlns="http://www.w3.org/2000/svg">
<g filter="url(#filter0_d_2344_1760)">
<path d="M66.1129 46.1079C66.1129 50.0254 62.9362 53.2021 59.0188 53.2021C55.1013 53.2021 51.9247 50.0254 51.9247 46.1079C51.9247 42.1905 55.1013 39.0138 59.0188 39.0138C62.9362 39.0138 66.1129 42.1905 66.1129 46.1079ZM48.4142 50.851C49.1286 48.1135 47.489 45.3145 44.7515 44.6001C39.1535 43.1391 35.2448 38.071 35.2448 32.2739C35.2448 25.2501 40.9599 19.5379 47.9809 19.5379C55.0018 19.5379 60.7169 25.253 60.7169 32.2739C60.7169 35.1052 63.0094 37.3976 65.8406 37.3976C68.6718 37.3976 70.9643 35.1052 70.9643 32.2739C70.9643 19.5994 60.6525 9.29053 47.9809 9.29053C35.3092 9.29053 24.9974 19.6023 24.9974 32.2739C24.9974 42.7292 32.0564 51.8728 42.1604 54.5137C42.5937 54.6279 43.0299 54.6806 43.4574 54.6806C45.7323 54.6806 47.8111 53.1552 48.4113 50.851H48.4142Z" fill="url(#paint0_linear_2344_1760)"/>
</g>
<path d="M39.6509 86.744V84.464H21.9509V79.904H39.6509V77.264H21.9509V72.674H44.8709V86.744H39.6509ZM46.3709 88.004V92.594H40.9409V98.594H35.8709V92.594H30.9509V98.594H25.8809V92.594H20.4509V88.004H46.3709ZM74.0883 72.374V89.864H69.0183V72.374H74.0883ZM57.6483 87.104C52.6683 87.104 49.2783 84.074 49.2783 79.754C49.2783 75.464 52.6683 72.404 57.6483 72.404C62.6283 72.404 66.0183 75.464 66.0183 79.754C66.0183 84.074 62.6283 87.104 57.6483 87.104ZM57.6483 76.574C55.6983 76.574 54.3183 77.774 54.3183 79.754C54.3183 81.734 55.6983 82.934 57.6483 82.934C59.5683 82.934 60.9783 81.734 60.9783 79.754C60.9783 77.774 59.5683 76.574 57.6483 76.574ZM75.2283 93.824L73.4583 98.324L62.5083 94.244C59.5983 96.734 55.4283 97.994 51.2283 97.994V93.254C55.9683 93.254 60.1383 91.214 61.0983 87.614L66.1683 88.514C65.9583 89.264 65.7183 89.984 65.3883 90.644L75.2283 93.824Z" fill="#FF840E"/>
<defs>
<filter id="filter0_d_2344_1760" x="23.9698" y="9.29053" width="48.0221" height="47.4454" filterUnits="userSpaceOnUse" color-interpolation-filters="sRGB">
<feFlood flood-opacity="0" result="BackgroundImageFix"/>
<feColorMatrix in="SourceAlpha" type="matrix" values="0 0 0 0 0 0 0 0 0 0 0 0 0 0 0 0 0 0 127 0" result="hardAlpha"/>
<feOffset dy="1.02762"/>
<feGaussianBlur stdDeviation="0.51381"/>
<feComposite in2="hardAlpha" operator="out"/>
<feColorMatrix type="matrix" values="0 0 0 0 0 0 0 0 0 0 0 0 0 0 0 0 0 0 0.25 0"/>
<feBlend mode="normal" in2="BackgroundImageFix" result="effect1_dropShadow_2344_1760"/>
<feBlend mode="normal" in="SourceGraphic" in2="effect1_dropShadow_2344_1760" result="shape"/>
</filter>
<linearGradient id="paint0_linear_2344_1760" x1="65.4307" y1="49.7296" x2="31.7314" y2="16.0333" gradientUnits="userSpaceOnUse">
<stop stop-color="#FF9127"/>
<stop offset="1" stop-color="#FF682C"/>
</linearGradient>
</defs>
</svg>
