<svg width="38" height="37" viewBox="0 0 38 37" fill="none" xmlns="http://www.w3.org/2000/svg">
<path d="M18.6335 28.308L9.29436 35.2012C8.63559 35.6874 7.7375 35.0536 7.97495 34.27L11.3169 23.2414C11.4184 22.9067 11.3046 22.544 11.0302 22.3271L1.92156 15.1302C1.28854 14.63 1.64221 13.6119 2.44899 13.6119H13.9913C14.3575 13.6119 14.6826 13.3776 14.7984 13.0302L18.3347 2.42127C18.5932 1.64564 19.6903 1.64565 19.9489 2.42127L23.4932 13.0542C23.6051 13.3898 23.913 13.6212 24.2666 13.6352L35.6086 14.0844C36.4086 14.1161 36.7259 15.1347 36.0854 15.6151L27.1332 22.3292C26.8471 22.5438 26.7257 22.9143 26.8294 23.2565L30.1596 34.2462C30.3978 35.0322 29.4943 35.666 28.8363 35.1745L19.6479 28.3109C19.3474 28.0864 18.9353 28.0852 18.6335 28.308Z" fill="#D2D2D2"/>
</svg>
