<svg width="31" height="31" viewBox="0 0 31 31" fill="none" xmlns="http://www.w3.org/2000/svg">
<g clip-path="url(#clip0_2344_2477)">
<path fill-rule="evenodd" clip-rule="evenodd" d="M15.5013 10.5202C12.1324 10.5202 9.40133 13.2513 9.40133 16.6202C9.40133 19.9891 12.1324 22.7202 15.5013 22.7202C18.8703 22.7202 21.6013 19.9891 21.6013 16.6202C21.6013 13.2513 18.8703 10.5202 15.5013 10.5202ZM11.8413 16.6202C11.8413 14.5988 13.48 12.9602 15.5013 12.9602C17.5227 12.9602 19.1613 14.5988 19.1613 16.6202C19.1613 18.6416 17.5227 20.2802 15.5013 20.2802C13.48 20.2802 11.8413 18.6416 11.8413 16.6202Z" fill="#E9E9E9"/>
<path fill-rule="evenodd" clip-rule="evenodd" d="M11.8413 3.2002C11.4334 3.2002 11.0525 3.40406 10.8262 3.74346L8.7484 6.8602H4.52133C3.55064 6.8602 2.6197 7.2458 1.93332 7.93218C1.24693 8.61857 0.861328 9.5495 0.861328 10.5202V23.9402C0.861328 24.9109 1.24693 25.8418 1.93332 26.5282C2.6197 27.2146 3.55064 27.6002 4.52133 27.6002H26.4813C27.452 27.6002 28.383 27.2146 29.0693 26.5282C29.7557 25.8418 30.1413 24.9109 30.1413 23.9402V10.5202C30.1413 9.5495 29.7557 8.61857 29.0693 7.93218C28.383 7.2458 27.452 6.8602 26.4813 6.8602H22.2543L20.1764 3.74346C19.9502 3.40406 19.5692 3.2002 19.1613 3.2002H11.8413ZM10.4164 8.75693L12.4943 5.6402H18.5084L20.5862 8.75693C20.8125 9.09633 21.1934 9.3002 21.6013 9.3002H26.4813C26.8049 9.3002 27.1152 9.42873 27.344 9.65753C27.5728 9.88632 27.7013 10.1966 27.7013 10.5202V23.9402C27.7013 24.2638 27.5728 24.5741 27.344 24.8029C27.1152 25.0317 26.8049 25.1602 26.4813 25.1602H4.52133C4.19776 25.1602 3.88745 25.0317 3.65866 24.8029C3.42986 24.5741 3.30133 24.2638 3.30133 23.9402V10.5202C3.30133 10.1966 3.42986 9.88632 3.65866 9.65753C3.88745 9.42873 4.19776 9.3002 4.52133 9.3002H9.40133C9.80924 9.3002 10.1902 9.09633 10.4164 8.75693Z" fill="#E9E9E9"/>
</g>
<defs>
<clipPath id="clip0_2344_2477">
<rect width="29.28" height="29.28" fill="white" transform="translate(0.860352 0.759766)"/>
</clipPath>
</defs>
</svg>
