<svg width="20" height="20" viewBox="0 0 20 20" fill="none" xmlns="http://www.w3.org/2000/svg">
<g clip-path="url(#clip0_2344_2752)">
<path d="M15.3125 0H4.6875C2.09867 0 0 2.09867 0 4.6875V15.3125C0 17.9013 2.09867 20 4.6875 20H15.3125C17.9013 20 20 17.9013 20 15.3125V4.6875C20 2.09867 17.9013 0 15.3125 0Z" fill="url(#paint0_radial_2344_2752)"/>
<path d="M15.3125 0H4.6875C2.09867 0 0 2.09867 0 4.6875V15.3125C0 17.9013 2.09867 20 4.6875 20H15.3125C17.9013 20 20 17.9013 20 15.3125V4.6875C20 2.09867 17.9013 0 15.3125 0Z" fill="url(#paint1_radial_2344_2752)"/>
<path d="M10.0007 2.1875C7.87898 2.1875 7.61269 2.19678 6.77934 2.2347C5.94763 2.27279 5.37991 2.40446 4.88316 2.59766C4.36933 2.7972 3.93345 3.06414 3.4992 3.49855C3.06462 3.9328 2.7977 4.36867 2.5975 4.88235C2.40381 5.37927 2.27198 5.94714 2.23454 6.77853C2.19727 7.61187 2.1875 7.87828 2.1875 10.0001C2.1875 12.1219 2.19694 12.3873 2.2347 13.2206C2.27295 14.0523 2.40462 14.6201 2.59766 15.1168C2.79737 15.6307 3.0643 16.0666 3.49871 16.5008C3.9328 16.9354 4.36867 17.203 4.88219 17.4025C5.37927 17.5957 5.94714 17.7273 6.7787 17.7655C7.61204 17.8034 7.87813 17.8127 9.99977 17.8127C12.1217 17.8127 12.3872 17.8034 13.2205 17.7655C14.0522 17.7273 14.6205 17.5957 15.1177 17.4025C15.6313 17.203 16.0666 16.9354 16.5006 16.5008C16.9352 16.0666 17.2021 15.6307 17.4023 15.117C17.5944 14.6201 17.7262 14.0522 17.7653 13.2208C17.8027 12.3875 17.8125 12.1219 17.8125 10.0001C17.8125 7.87828 17.8027 7.61204 17.7653 6.7787C17.7262 5.94698 17.5944 5.37927 17.4023 4.88252C17.2021 4.36867 16.9352 3.9328 16.5006 3.49855C16.0661 3.06398 15.6315 2.79705 15.1172 2.59766C14.6191 2.40446 14.0511 2.27279 13.2194 2.2347C12.386 2.19678 12.1207 2.1875 9.99828 2.1875H10.0007ZM9.29984 3.59539C9.50789 3.59507 9.74 3.59539 10.0007 3.59539C12.0867 3.59539 12.3339 3.60288 13.1577 3.64031C13.9194 3.67515 14.3328 3.80242 14.6082 3.90936C14.9728 4.05096 15.2327 4.22023 15.506 4.49368C15.7795 4.76712 15.9487 5.02754 16.0906 5.39213C16.1976 5.66719 16.325 6.08061 16.3597 6.84234C16.3971 7.66591 16.4052 7.91328 16.4052 9.99828C16.4052 12.0833 16.3971 12.3307 16.3597 13.1542C16.3248 13.9159 16.1976 14.3294 16.0906 14.6045C15.9491 14.9691 15.7795 15.2287 15.506 15.502C15.2326 15.7754 14.973 15.9446 14.6082 16.0863C14.3331 16.1937 13.9194 16.3206 13.1577 16.3555C12.3341 16.3929 12.0867 16.401 10.0007 16.401C7.91461 16.401 7.66738 16.3929 6.8438 16.3555C6.08207 16.3203 5.66866 16.193 5.3931 16.0861C5.02852 15.9445 4.76809 15.7752 4.49466 15.5018C4.22121 15.2284 4.05194 14.9686 3.91001 14.6038C3.80308 14.3287 3.67563 13.9153 3.64097 13.1536C3.60353 12.33 3.59605 12.0827 3.59605 9.99633C3.59605 7.91008 3.60353 7.66395 3.64097 6.84038C3.6758 6.07866 3.80308 5.66523 3.91001 5.38984C4.05162 5.02526 4.22121 4.76484 4.49466 4.4914C4.76809 4.21796 5.02852 4.04869 5.3931 3.90676C5.66849 3.79934 6.08207 3.67237 6.8438 3.63738C7.56451 3.60484 7.84383 3.59507 9.29984 3.59344V3.59539ZM14.171 4.89261C13.6534 4.89261 13.2335 5.31205 13.2335 5.82979C13.2335 6.34737 13.6534 6.7673 14.171 6.7673C14.6886 6.7673 15.1085 6.34737 15.1085 5.82979C15.1085 5.3122 14.6886 4.89228 14.171 4.89228V4.89261ZM10.0007 5.98799C7.78505 5.98799 5.98865 7.7844 5.98865 10.0001C5.98865 12.2158 7.78505 14.0113 10.0007 14.0113C12.2164 14.0113 14.0122 12.2158 14.0122 10.0001C14.0122 7.7844 12.2163 5.98799 10.0005 5.98799H10.0007ZM10.0007 7.39589C11.4389 7.39589 12.6049 8.56172 12.6049 10.0001C12.6049 11.4383 11.4389 12.6043 10.0007 12.6043C8.56242 12.6043 7.39654 11.4383 7.39654 10.0001C7.39654 8.56172 8.56242 7.39589 10.0007 7.39589Z" fill="white"/>
</g>
<defs>
<radialGradient id="paint0_radial_2344_2752" cx="0" cy="0" r="1" gradientUnits="userSpaceOnUse" gradientTransform="translate(5.31252 21.5404) rotate(-90) scale(19.8215 18.4355)">
<stop stop-color="#FFDD55"/>
<stop offset="0.1" stop-color="#FFDD55"/>
<stop offset="0.5" stop-color="#FF543E"/>
<stop offset="1" stop-color="#C837AB"/>
</radialGradient>
<radialGradient id="paint1_radial_2344_2752" cx="0" cy="0" r="1" gradientUnits="userSpaceOnUse" gradientTransform="translate(-3.35011 1.44077) rotate(78.6806) scale(8.86031 36.5225)">
<stop stop-color="#3771C8"/>
<stop offset="0.128" stop-color="#3771C8"/>
<stop offset="1" stop-color="#6600FF" stop-opacity="0"/>
</radialGradient>
<clipPath id="clip0_2344_2752">
<rect width="20" height="20" fill="white"/>
</clipPath>
</defs>
</svg>
