<svg width="10" height="11" viewBox="0 0 10 11" fill="none" xmlns="http://www.w3.org/2000/svg">
<rect y="0.5" width="10" height="10" rx="5" fill="#5DC65B"/>
<path d="M3.74756 6.96777L5.01709 5.80078C5.14242 5.68034 5.23926 5.58024 5.30762 5.50049C5.3776 5.42074 5.43132 5.3418 5.46875 5.26367C5.50618 5.18392 5.5249 5.09928 5.5249 5.00977C5.5249 4.90723 5.50049 4.81771 5.45166 4.74121C5.40446 4.66471 5.33773 4.60612 5.25146 4.56543C5.16683 4.52311 5.0708 4.50195 4.96338 4.50195C4.79736 4.50195 4.66471 4.5516 4.56543 4.65088C4.46615 4.74854 4.4165 4.88118 4.4165 5.04883H3.71826C3.71663 4.82096 3.7679 4.62158 3.87207 4.45068C3.97786 4.27979 4.12598 4.14795 4.31641 4.05518C4.50684 3.9624 4.72575 3.91602 4.97314 3.91602C5.22217 3.91602 5.44189 3.96077 5.63232 4.05029C5.82275 4.13818 5.97005 4.26107 6.07422 4.41895C6.18001 4.57682 6.23291 4.75749 6.23291 4.96094C6.23291 5.09928 6.20605 5.23275 6.15234 5.36133C6.09863 5.48828 6.00505 5.6307 5.87158 5.78857C5.73975 5.94482 5.55257 6.13281 5.31006 6.35254L4.77295 6.875V6.89453H6.28174V7.5H3.75244L3.74756 6.96777Z" fill="white"/>
</svg>
